<svg xmlns="http://www.w3.org/2000/svg" xmlns:xlink="http://www.w3.org/1999/xlink" width="500" zoomAndPan="magnify" viewBox="0 0 375 374.999991" height="500" preserveAspectRatio="xMidYMid meet" version="1.0"><defs><g/></defs><g fill="#231f20" fill-opacity="1"><g transform="translate(0.0000045, 168.410824)"><g><path d="M 18.773438 0 L 27.132812 -27.132812 L 35.46875 0 L 41.910156 0 L 53.867188 -36.238281 L 46.835938 -36.238281 L 39.25 -12.0625 L 38.503906 -8.894531 L 38.421875 -8.894531 L 37.8125 -11.875 L 30.621094 -36.214844 L 23.617188 -36.214844 L 16.402344 -11.824219 L 15.871094 -8.894531 L 15.761719 -8.894531 L 15.070312 -11.742188 L 7.402344 -36.238281 L 0.398438 -36.238281 L 12.355469 0 Z M 18.773438 0 "/></g></g></g><g fill="#231f20" fill-opacity="1"><g transform="translate(54.235344, 168.410824)"><g><path d="M 29.824219 -14.164062 C 29.824219 -21.703125 24.285156 -28.199219 16.03125 -28.199219 C 7.800781 -28.199219 1.835938 -21.675781 1.835938 -13.6875 C 1.835938 -5.699219 7.800781 0.824219 16.03125 0.824219 C 22.847656 0.824219 27.71875 -3.675781 29.105469 -8.601562 L 22.074219 -8.601562 C 21.140625 -6.285156 19.144531 -4.925781 15.894531 -4.925781 C 12.117188 -4.925781 8.972656 -7.507812 8.308594 -11.980469 L 29.6875 -11.980469 C 29.796875 -12.992188 29.824219 -13.472656 29.824219 -14.164062 Z M 8.574219 -16.960938 C 9.664062 -20.824219 12.753906 -22.578125 16.003906 -22.578125 C 19.785156 -22.578125 22.980469 -20.023438 23.246094 -16.960938 Z M 8.574219 -16.960938 "/></g></g></g><g fill="#231f20" fill-opacity="1"><g transform="translate(85.519843, 168.410824)"><g><path d="M 19.382812 0.824219 C 27.027344 0.824219 32.644531 -5.644531 32.644531 -13.6875 C 32.644531 -21.675781 27.078125 -28.171875 19.304688 -28.171875 C 15.363281 -28.171875 11.875 -26.066406 10.066406 -22.898438 L 10.226562 -26.492188 L 10.226562 -37.492188 L 3.78125 -37.492188 L 3.78125 0 L 9.90625 0 L 9.90625 -4.605469 C 11.769531 -1.25 15.390625 0.824219 19.382812 0.824219 Z M 18.214844 -5.113281 C 13.847656 -5.113281 10.144531 -8.679688 10.144531 -13.6875 C 10.144531 -18.480469 13.738281 -22.234375 18.1875 -22.234375 C 22.632812 -22.234375 26.253906 -18.824219 26.253906 -13.6875 C 26.253906 -8.386719 22.554688 -5.113281 18.214844 -5.113281 Z M 18.214844 -5.113281 "/></g></g></g><g fill="#231f20" fill-opacity="1"><g transform="translate(120.718232, 168.410824)"><g><path d="M 36.664062 0 L 21.59375 -36.238281 L 15.3125 -36.238281 L 0.238281 0 L 7.242188 0 L 10.117188 -7.003906 L 26.785156 -7.003906 L 29.664062 0 Z M 18.214844 -26.8125 L 18.425781 -27.691406 L 18.507812 -27.691406 L 18.664062 -26.8125 L 24.523438 -12.542969 L 12.382812 -12.542969 Z M 18.214844 -26.8125 "/></g></g></g><g fill="#231f20" fill-opacity="1"><g transform="translate(157.647253, 168.410824)"><g><path d="M 15.976562 0.824219 C 23.007812 0.824219 28.171875 -3.675781 29.582031 -10.011719 L 23.03125 -10.011719 C 21.835938 -6.605469 19.117188 -5.140625 16.003906 -5.140625 C 12.0625 -5.140625 8.226562 -8.28125 8.226562 -13.6875 C 8.226562 -19.066406 12.035156 -22.207031 16.003906 -22.207031 C 19.117188 -22.207031 21.808594 -20.742188 23.03125 -17.707031 L 29.609375 -17.707031 C 28.066406 -23.726562 23.03125 -28.199219 15.976562 -28.199219 C 7.800781 -28.199219 1.835938 -21.648438 1.835938 -13.6875 C 1.835938 -5.699219 7.800781 0.824219 15.976562 0.824219 Z M 15.976562 0.824219 "/></g></g></g><g fill="#231f20" fill-opacity="1"><g transform="translate(188.665501, 168.410824)"><g><path d="M 14.726562 0.824219 C 19.171875 0.824219 22.792969 -1.199219 24.578125 -4.605469 L 24.578125 0 L 30.703125 0 L 30.703125 -27.371094 L 24.578125 -27.371094 L 24.578125 -22.738281 C 22.820312 -26.148438 19.171875 -28.199219 14.699219 -28.199219 C 7.375 -28.199219 1.835938 -21.675781 1.835938 -13.6875 C 1.835938 -5.644531 7.324219 0.824219 14.726562 0.824219 Z M 16.269531 -5.140625 C 11.929688 -5.140625 8.226562 -8.359375 8.226562 -13.6875 C 8.226562 -18.824219 11.847656 -22.234375 16.269531 -22.234375 C 20.742188 -22.234375 24.3125 -18.453125 24.3125 -13.6875 C 24.3125 -8.839844 20.769531 -5.140625 16.269531 -5.140625 Z M 16.269531 -5.140625 "/></g></g></g><g fill="#231f20" fill-opacity="1"><g transform="translate(223.145012, 168.410824)"><g><path d="M 15.070312 0.824219 C 19.652344 0.824219 22.925781 -1.730469 24.550781 -4.605469 L 24.550781 0 L 30.675781 0 L 30.675781 -37.492188 L 24.257812 -37.492188 L 24.257812 -25.75 L 24.390625 -22.898438 C 22.953125 -25.480469 19.625 -28.199219 15.152344 -28.199219 C 7.164062 -28.199219 1.835938 -21.675781 1.835938 -13.6875 C 1.835938 -5.644531 7.296875 0.824219 15.070312 0.824219 Z M 16.242188 -5.113281 C 11.53125 -5.113281 8.175781 -8.839844 8.175781 -13.6875 C 8.175781 -18.664062 11.6875 -22.234375 16.242188 -22.234375 C 20.769531 -22.234375 24.3125 -18.480469 24.3125 -13.6875 C 24.3125 -8.839844 20.742188 -5.113281 16.242188 -5.113281 Z M 16.242188 -5.113281 "/></g></g></g><g fill="#231f20" fill-opacity="1"><g transform="translate(257.571273, 168.410824)"><g><path d="M 29.824219 -14.164062 C 29.824219 -21.703125 24.285156 -28.199219 16.03125 -28.199219 C 7.800781 -28.199219 1.835938 -21.675781 1.835938 -13.6875 C 1.835938 -5.699219 7.800781 0.824219 16.03125 0.824219 C 22.847656 0.824219 27.71875 -3.675781 29.105469 -8.601562 L 22.074219 -8.601562 C 21.140625 -6.285156 19.144531 -4.925781 15.894531 -4.925781 C 12.117188 -4.925781 8.972656 -7.507812 8.308594 -11.980469 L 29.6875 -11.980469 C 29.796875 -12.992188 29.824219 -13.472656 29.824219 -14.164062 Z M 8.574219 -16.960938 C 9.664062 -20.824219 12.753906 -22.578125 16.003906 -22.578125 C 19.785156 -22.578125 22.980469 -20.023438 23.246094 -16.960938 Z M 8.574219 -16.960938 "/></g></g></g><g fill="#231f20" fill-opacity="1"><g transform="translate(288.855772, 168.410824)"><g><path d="M 37.332031 -28.199219 C 33.417969 -28.199219 30.089844 -26.226562 27.746094 -22.019531 C 26.226562 -26.042969 23.191406 -28.199219 18.613281 -28.199219 C 14.566406 -28.199219 11.289062 -26.015625 9.878906 -23.113281 L 9.796875 -27.371094 L 3.78125 -27.371094 L 3.78125 0 L 10.144531 0 L 10.144531 -13.980469 C 10.144531 -18.90625 13.285156 -22.261719 16.75 -22.261719 C 20.261719 -22.261719 22.5 -20.023438 22.5 -14.617188 L 22.5 0 L 28.863281 0 L 28.863281 -13.980469 C 28.863281 -18.90625 32.03125 -22.261719 35.46875 -22.261719 C 39.007812 -22.261719 41.246094 -20.023438 41.246094 -14.617188 L 41.246094 0 L 47.609375 0 L 47.609375 -14.75 C 47.609375 -23.351562 44.203125 -28.199219 37.332031 -28.199219 Z M 37.332031 -28.199219 "/></g></g></g><g fill="#231f20" fill-opacity="1"><g transform="translate(340.029242, 168.410824)"><g><path d="M 5.910156 9.347656 C 11.980469 9.347656 14.75 7.5625 17.972656 -0.613281 L 28.652344 -27.371094 L 21.78125 -27.347656 L 15.445312 -10.785156 L 14.726562 -7.988281 L 14.03125 -10.8125 L 7.589844 -27.371094 L 0.796875 -27.371094 L 11.289062 -1.277344 L 10.96875 -0.347656 C 9.824219 2.664062 8.734375 4.019531 5.859375 4.019531 L 1.304688 4.019531 L 1.304688 9.347656 Z M 5.910156 9.347656 "/></g></g></g></svg>