<svg xmlns="http://www.w3.org/2000/svg" xmlns:xlink="http://www.w3.org/1999/xlink" width="180" style="" zoomAndPan="magnify" viewBox="0 0 135 30.000001" height="40" preserveAspectRatio="xMidYMid meet" version="1.0"><defs><g/><clipPath id="15f6683df2"><path d="M 2.175781 6 L 22 6 L 22 20 L 2.175781 20 Z M 2.175781 6 " clip-rule="nonzero"/></clipPath><clipPath id="e38d12c952"><path d="M 123 9 L 132.820312 9 L 132.820312 23 L 123 23 Z M 123 9 " clip-rule="nonzero"/></clipPath></defs><g clip-path="url(#15f6683df2)"><g fill="#231f20" fill-opacity="1"><g transform="translate(2.177417, 19.360383)"><g><path d="M 6.65625 0 L 9.621094 -9.621094 L 12.574219 0 L 14.859375 0 L 19.101562 -12.851562 L 16.609375 -12.851562 L 13.917969 -4.277344 L 13.652344 -3.152344 L 13.625 -3.152344 L 13.40625 -4.210938 L 10.859375 -12.839844 L 8.375 -12.839844 L 5.816406 -4.191406 L 5.628906 -3.152344 L 5.589844 -3.152344 L 5.34375 -4.164062 L 2.625 -12.851562 L 0.140625 -12.851562 L 4.382812 0 Z M 6.65625 0 "/></g></g></g></g><g fill="#231f20" fill-opacity="1"><g transform="translate(21.408236, 19.360383)"><g><path d="M 10.574219 -5.023438 C 10.574219 -7.695312 8.609375 -10 5.683594 -10 C 2.765625 -10 0.652344 -7.683594 0.652344 -4.851562 C 0.652344 -2.019531 2.765625 0.292969 5.683594 0.292969 C 8.101562 0.292969 9.828125 -1.304688 10.320312 -3.050781 L 7.828125 -3.050781 C 7.496094 -2.226562 6.789062 -1.746094 5.636719 -1.746094 C 4.296875 -1.746094 3.183594 -2.664062 2.945312 -4.25 L 10.527344 -4.25 C 10.566406 -4.609375 10.574219 -4.777344 10.574219 -5.023438 Z M 3.039062 -6.015625 C 3.425781 -7.382812 4.523438 -8.007812 5.675781 -8.007812 C 7.015625 -8.007812 8.148438 -7.101562 8.242188 -6.015625 Z M 3.039062 -6.015625 "/></g></g></g><g fill="#231f20" fill-opacity="1"><g transform="translate(32.501124, 19.360383)"><g><path d="M 6.875 0.292969 C 9.582031 0.292969 11.574219 -2 11.574219 -4.851562 C 11.574219 -7.683594 9.601562 -9.988281 6.84375 -9.988281 C 5.449219 -9.988281 4.210938 -9.242188 3.570312 -8.121094 L 3.625 -9.394531 L 3.625 -13.292969 L 1.339844 -13.292969 L 1.339844 0 L 3.511719 0 L 3.511719 -1.632812 C 4.171875 -0.445312 5.457031 0.292969 6.875 0.292969 Z M 6.457031 -1.8125 C 4.910156 -1.8125 3.597656 -3.078125 3.597656 -4.851562 C 3.597656 -6.550781 4.871094 -7.882812 6.449219 -7.882812 C 8.023438 -7.882812 9.308594 -6.675781 9.308594 -4.851562 C 9.308594 -2.972656 7.996094 -1.8125 6.457031 -1.8125 Z M 6.457031 -1.8125 "/></g></g></g><g fill="#231f20" fill-opacity="1"><g transform="translate(44.981802, 19.360383)"><g><path d="M 13 0 L 7.65625 -12.851562 L 5.429688 -12.851562 L 0.0859375 0 L 2.566406 0 L 3.585938 -2.484375 L 9.5 -2.484375 L 10.519531 0 Z M 6.457031 -9.507812 L 6.535156 -9.820312 L 6.5625 -9.820312 L 6.617188 -9.507812 L 8.695312 -4.445312 L 4.390625 -4.445312 Z M 6.457031 -9.507812 "/></g></g></g><g fill="#231f20" fill-opacity="1"><g transform="translate(58.07613, 19.360383)"><g><path d="M 5.664062 0.292969 C 8.15625 0.292969 9.988281 -1.304688 10.488281 -3.550781 L 8.167969 -3.550781 C 7.742188 -2.339844 6.777344 -1.820312 5.675781 -1.820312 C 4.277344 -1.820312 2.917969 -2.9375 2.917969 -4.851562 C 2.917969 -6.761719 4.265625 -7.875 5.675781 -7.875 C 6.777344 -7.875 7.734375 -7.355469 8.167969 -6.277344 L 10.5 -6.277344 C 9.953125 -8.414062 8.167969 -10 5.664062 -10 C 2.765625 -10 0.652344 -7.675781 0.652344 -4.851562 C 0.652344 -2.019531 2.765625 0.292969 5.664062 0.292969 Z M 5.664062 0.292969 "/></g></g></g><g fill="#231f20" fill-opacity="1"><g transform="translate(69.07461, 19.360383)"><g><path d="M 5.222656 0.292969 C 6.796875 0.292969 8.082031 -0.425781 8.714844 -1.632812 L 8.714844 0 L 10.886719 0 L 10.886719 -9.707031 L 8.714844 -9.707031 L 8.714844 -8.0625 C 8.089844 -9.273438 6.796875 -10 5.210938 -10 C 2.617188 -10 0.652344 -7.683594 0.652344 -4.851562 C 0.652344 -2 2.597656 0.292969 5.222656 0.292969 Z M 5.769531 -1.820312 C 4.230469 -1.820312 2.917969 -2.964844 2.917969 -4.851562 C 2.917969 -6.675781 4.203125 -7.882812 5.769531 -7.882812 C 7.355469 -7.882812 8.621094 -6.542969 8.621094 -4.851562 C 8.621094 -3.132812 7.363281 -1.820312 5.769531 -1.820312 Z M 5.769531 -1.820312 "/></g></g></g><g fill="#231f20" fill-opacity="1"><g transform="translate(81.300388, 19.360383)"><g><path d="M 5.34375 0.292969 C 6.96875 0.292969 8.128906 -0.613281 8.703125 -1.632812 L 8.703125 0 L 10.875 0 L 10.875 -13.292969 L 8.601562 -13.292969 L 8.601562 -9.128906 L 8.648438 -8.121094 C 8.136719 -9.035156 6.957031 -10 5.371094 -10 C 2.539062 -10 0.652344 -7.683594 0.652344 -4.851562 C 0.652344 -2 2.585938 0.292969 5.34375 0.292969 Z M 5.757812 -1.8125 C 4.089844 -1.8125 2.898438 -3.132812 2.898438 -4.851562 C 2.898438 -6.617188 4.144531 -7.882812 5.757812 -7.882812 C 7.363281 -7.882812 8.621094 -6.550781 8.621094 -4.851562 C 8.621094 -3.132812 7.355469 -1.8125 5.757812 -1.8125 Z M 5.757812 -1.8125 "/></g></g></g><g fill="#231f20" fill-opacity="1"><g transform="translate(93.507285, 19.360383)"><g><path d="M 10.574219 -5.023438 C 10.574219 -7.695312 8.609375 -10 5.683594 -10 C 2.765625 -10 0.652344 -7.683594 0.652344 -4.851562 C 0.652344 -2.019531 2.765625 0.292969 5.683594 0.292969 C 8.101562 0.292969 9.828125 -1.304688 10.320312 -3.050781 L 7.828125 -3.050781 C 7.496094 -2.226562 6.789062 -1.746094 5.636719 -1.746094 C 4.296875 -1.746094 3.183594 -2.664062 2.945312 -4.25 L 10.527344 -4.25 C 10.566406 -4.609375 10.574219 -4.777344 10.574219 -5.023438 Z M 3.039062 -6.015625 C 3.425781 -7.382812 4.523438 -8.007812 5.675781 -8.007812 C 7.015625 -8.007812 8.148438 -7.101562 8.242188 -6.015625 Z M 3.039062 -6.015625 "/></g></g></g><g fill="#231f20" fill-opacity="1"><g transform="translate(104.600172, 19.360383)"><g><path d="M 13.238281 -10 C 11.847656 -10 10.667969 -9.300781 9.839844 -7.808594 C 9.300781 -9.234375 8.222656 -10 6.601562 -10 C 5.164062 -10 4.003906 -9.222656 3.503906 -8.195312 L 3.472656 -9.707031 L 1.339844 -9.707031 L 1.339844 0 L 3.597656 0 L 3.597656 -4.957031 C 3.597656 -6.703125 4.710938 -7.894531 5.9375 -7.894531 C 7.183594 -7.894531 7.976562 -7.101562 7.976562 -5.183594 L 7.976562 0 L 10.234375 0 L 10.234375 -4.957031 C 10.234375 -6.703125 11.359375 -7.894531 12.574219 -7.894531 C 13.832031 -7.894531 14.625 -7.101562 14.625 -5.183594 L 14.625 0 L 16.882812 0 L 16.882812 -5.230469 C 16.882812 -8.28125 15.671875 -10 13.238281 -10 Z M 13.238281 -10 "/></g></g></g><g clip-path="url(#e38d12c952)"><g fill="#231f20" fill-opacity="1"><g transform="translate(122.745311, 19.360383)"><g><path d="M 2.097656 3.3125 C 4.25 3.3125 5.230469 2.679688 6.371094 -0.21875 L 10.160156 -9.707031 L 7.722656 -9.695312 L 5.476562 -3.824219 L 5.222656 -2.832031 L 4.976562 -3.832031 L 2.691406 -9.707031 L 0.285156 -9.707031 L 4.003906 -0.453125 L 3.890625 -0.121094 C 3.484375 0.945312 3.097656 1.425781 2.078125 1.425781 L 0.460938 1.425781 L 0.460938 3.3125 Z M 2.097656 3.3125 "/></g></g></g></g></svg>