<svg xmlns="http://www.w3.org/2000/svg" xmlns:xlink="http://www.w3.org/1999/xlink" width="500" zoomAndPan="magnify" viewBox="0 0 375 374.999991" height="500" preserveAspectRatio="xMidYMid meet" version="1.0"><defs><g/><clipPath id="4b0b82946d"><path d="M 3.605469 156.007812 L 45 156.007812 L 45 219 L 3.605469 219 Z M 3.605469 156.007812 " clip-rule="nonzero"/></clipPath><clipPath id="073d1fff11"><path d="M 3.605469 156.007812 L 45 156.007812 L 45 204 L 3.605469 204 Z M 3.605469 156.007812 " clip-rule="nonzero"/></clipPath><clipPath id="c3d82a4fc7"><path d="M 59 156.007812 L 71.105469 156.007812 L 71.105469 169 L 59 169 Z M 59 156.007812 " clip-rule="nonzero"/></clipPath><clipPath id="4bac6e9da7"><path d="M 29 156.007812 L 71.105469 156.007812 L 71.105469 219 L 29 219 Z M 29 156.007812 " clip-rule="nonzero"/></clipPath><clipPath id="4310f73053"><path d="M 29 156.007812 L 71.105469 156.007812 L 71.105469 204 L 29 204 Z M 29 156.007812 " clip-rule="nonzero"/></clipPath></defs><g clip-path="url(#4b0b82946d)"><path fill="#72ffff" d="M 19.726562 159.164062 L 41.511719 180.949219 C 41.953125 181.386719 42.34375 181.867188 42.6875 182.382812 C 43.03125 182.898438 43.324219 183.441406 43.558594 184.015625 C 43.796875 184.585938 43.976562 185.175781 44.097656 185.785156 C 44.21875 186.394531 44.277344 187.007812 44.277344 187.628906 C 44.277344 188.25 44.21875 188.863281 44.097656 189.472656 C 43.976562 190.078125 43.796875 190.671875 43.558594 191.242188 C 43.324219 191.816406 43.03125 192.359375 42.6875 192.875 C 42.34375 193.390625 41.953125 193.867188 41.511719 194.308594 L 19.726562 216.09375 C 13.777344 222.042969 3.597656 217.828125 3.605469 209.410156 L 3.605469 165.835938 C 3.597656 157.429688 13.777344 153.210938 19.726562 159.164062 Z M 19.726562 159.164062 " fill-opacity="1" fill-rule="nonzero"/></g><g clip-path="url(#073d1fff11)"><path fill="#00d7ff" d="M 19.726562 159.164062 C 13.808594 153.246094 3.75 157.382812 3.609375 165.695312 C 3.609375 165.695312 37.890625 198.132812 32.441406 203.417969 L 41.53125 194.328125 C 41.96875 193.886719 42.363281 193.410156 42.707031 192.894531 C 43.050781 192.378906 43.34375 191.835938 43.578125 191.261719 C 43.816406 190.691406 43.996094 190.097656 44.117188 189.492188 C 44.238281 188.882812 44.296875 188.269531 44.296875 187.648438 C 44.296875 187.027344 44.238281 186.414062 44.117188 185.804688 C 43.996094 185.195312 43.816406 184.605469 43.578125 184.035156 C 43.34375 183.460938 43.050781 182.917969 42.707031 182.402344 C 42.363281 181.886719 41.96875 181.40625 41.53125 180.96875 Z M 19.726562 159.164062 " fill-opacity="1" fill-rule="nonzero"/></g><g clip-path="url(#c3d82a4fc7)"><path fill="#590696" d="M 71.386719 162.25 C 71.386719 162.65625 71.34375 163.058594 71.265625 163.457031 C 71.1875 163.855469 71.070312 164.238281 70.914062 164.613281 C 70.761719 164.988281 70.570312 165.34375 70.34375 165.679688 C 70.121094 166.019531 69.863281 166.332031 69.578125 166.617188 C 69.289062 166.902344 68.980469 167.160156 68.640625 167.382812 C 68.304688 167.609375 67.949219 167.800781 67.574219 167.953125 C 67.199219 168.109375 66.8125 168.226562 66.417969 168.304688 C 66.019531 168.386719 65.617188 168.425781 65.210938 168.425781 C 64.808594 168.425781 64.40625 168.386719 64.007812 168.304688 C 63.609375 168.226562 63.222656 168.109375 62.851562 167.953125 C 62.476562 167.800781 62.121094 167.609375 61.78125 167.382812 C 61.445312 167.160156 61.132812 166.902344 60.847656 166.617188 C 60.558594 166.332031 60.304688 166.019531 60.078125 165.679688 C 59.855469 165.34375 59.664062 164.988281 59.507812 164.613281 C 59.355469 164.238281 59.238281 163.855469 59.15625 163.457031 C 59.078125 163.058594 59.039062 162.65625 59.039062 162.25 C 59.039062 161.847656 59.078125 161.445312 59.15625 161.046875 C 59.238281 160.648438 59.355469 160.265625 59.507812 159.890625 C 59.664062 159.515625 59.855469 159.160156 60.078125 158.824219 C 60.304688 158.484375 60.558594 158.171875 60.847656 157.886719 C 61.132812 157.601562 61.445312 157.34375 61.78125 157.121094 C 62.121094 156.894531 62.476562 156.703125 62.851562 156.546875 C 63.222656 156.394531 63.609375 156.277344 64.007812 156.199219 C 64.40625 156.117188 64.808594 156.078125 65.210938 156.078125 C 65.617188 156.078125 66.019531 156.117188 66.417969 156.199219 C 66.8125 156.277344 67.199219 156.394531 67.574219 156.546875 C 67.949219 156.703125 68.304688 156.894531 68.640625 157.121094 C 68.980469 157.34375 69.289062 157.601562 69.578125 157.886719 C 69.863281 158.171875 70.121094 158.484375 70.34375 158.824219 C 70.570312 159.160156 70.761719 159.515625 70.914062 159.890625 C 71.070312 160.265625 71.1875 160.648438 71.265625 161.046875 C 71.34375 161.445312 71.386719 161.847656 71.386719 162.25 Z M 71.386719 162.25 " fill-opacity="1" fill-rule="nonzero"/><path fill="#590696" d="M 71.386719 162.25 C 71.386719 162.65625 71.34375 163.058594 71.265625 163.457031 C 71.1875 163.855469 71.070312 164.238281 70.914062 164.613281 C 70.761719 164.988281 70.570312 165.34375 70.34375 165.679688 C 70.121094 166.019531 69.863281 166.332031 69.578125 166.617188 C 69.289062 166.902344 68.980469 167.160156 68.640625 167.382812 C 68.304688 167.609375 67.949219 167.800781 67.574219 167.953125 C 67.199219 168.109375 66.8125 168.226562 66.417969 168.304688 C 66.019531 168.386719 65.617188 168.425781 65.210938 168.425781 C 64.808594 168.425781 64.40625 168.386719 64.007812 168.304688 C 63.609375 168.226562 63.222656 168.109375 62.851562 167.953125 C 62.476562 167.800781 62.121094 167.609375 61.78125 167.382812 C 61.445312 167.160156 61.132812 166.902344 60.847656 166.617188 C 60.558594 166.332031 60.304688 166.019531 60.078125 165.679688 C 59.855469 165.34375 59.664062 164.988281 59.507812 164.613281 C 59.355469 164.238281 59.238281 163.855469 59.15625 163.457031 C 59.078125 163.058594 59.039062 162.65625 59.039062 162.25 C 59.039062 161.847656 59.078125 161.445312 59.15625 161.046875 C 59.238281 160.648438 59.355469 160.265625 59.507812 159.890625 C 59.664062 159.515625 59.855469 159.160156 60.078125 158.824219 C 60.304688 158.484375 60.558594 158.171875 60.847656 157.886719 C 61.132812 157.601562 61.445312 157.34375 61.78125 157.121094 C 62.121094 156.894531 62.476562 156.703125 62.851562 156.546875 C 63.222656 156.394531 63.609375 156.277344 64.007812 156.199219 C 64.40625 156.117188 64.808594 156.078125 65.210938 156.078125 C 65.617188 156.078125 66.019531 156.117188 66.417969 156.199219 C 66.8125 156.277344 67.199219 156.394531 67.574219 156.546875 C 67.949219 156.703125 68.304688 156.894531 68.640625 157.121094 C 68.980469 157.34375 69.289062 157.601562 69.578125 157.886719 C 69.863281 158.171875 70.121094 158.484375 70.34375 158.824219 C 70.570312 159.160156 70.761719 159.515625 70.914062 159.890625 C 71.070312 160.265625 71.1875 160.648438 71.265625 161.046875 C 71.34375 161.445312 71.386719 161.847656 71.386719 162.25 Z M 71.386719 162.25 " fill-opacity="1" fill-rule="nonzero"/></g><g clip-path="url(#4bac6e9da7)"><path fill="#0096ff" d="M 68.617188 181.003906 L 46.828125 159.214844 C 40.980469 153.363281 25.390625 160.152344 30.726562 165.484375 L 46.394531 181.15625 C 46.832031 181.597656 47.222656 182.074219 47.566406 182.589844 C 47.914062 183.105469 48.203125 183.648438 48.441406 184.21875 C 48.679688 184.792969 48.859375 185.382812 48.980469 185.992188 C 49.101562 186.601562 49.160156 187.214844 49.160156 187.835938 C 49.160156 188.453125 49.101562 189.070312 48.980469 189.675781 C 48.859375 190.285156 48.679688 190.875 48.441406 191.449219 C 48.203125 192.019531 47.914062 192.566406 47.566406 193.082031 C 47.222656 193.597656 46.832031 194.074219 46.394531 194.511719 L 30.734375 210.171875 C 25.960938 214.941406 41.039062 221.976562 46.828125 216.1875 L 68.617188 194.398438 C 69.058594 193.960938 69.453125 193.484375 69.796875 192.964844 C 70.144531 192.449219 70.4375 191.902344 70.675781 191.328125 C 70.917969 190.753906 71.097656 190.160156 71.21875 189.550781 C 71.339844 188.941406 71.402344 188.324219 71.402344 187.703125 C 71.402344 187.078125 71.339844 186.460938 71.21875 185.851562 C 71.097656 185.242188 70.917969 184.648438 70.675781 184.074219 C 70.4375 183.5 70.144531 182.953125 69.796875 182.4375 C 69.453125 181.917969 69.058594 181.441406 68.617188 181.003906 Z M 68.617188 181.003906 " fill-opacity="1" fill-rule="nonzero"/></g><g clip-path="url(#4310f73053)"><path fill="#5800ff" d="M 68.617188 181.003906 L 46.828125 159.214844 C 40.980469 153.363281 25.390625 160.152344 30.726562 165.484375 L 46.394531 181.15625 C 47.148438 181.914062 47.757812 182.773438 48.222656 183.734375 C 48.6875 184.699219 48.976562 185.710938 49.09375 186.773438 C 54.492188 193.113281 58.980469 199.265625 59.914062 203.101562 L 68.628906 194.386719 C 69.070312 193.945312 69.460938 193.46875 69.808594 192.949219 C 70.152344 192.433594 70.445312 191.886719 70.683594 191.3125 C 70.921875 190.738281 71.101562 190.148438 71.222656 189.539062 C 71.34375 188.929688 71.402344 188.3125 71.402344 187.691406 C 71.402344 187.070312 71.339844 186.453125 71.21875 185.84375 C 71.09375 185.234375 70.914062 184.644531 70.675781 184.070312 C 70.4375 183.496094 70.144531 182.949219 69.796875 182.433594 C 69.449219 181.917969 69.054688 181.441406 68.617188 181.003906 Z M 68.617188 181.003906 " fill-opacity="1" fill-rule="nonzero"/></g><g fill="#231f20" fill-opacity="1"><g transform="translate(71.396301, 201.448041)"><g><path d="M 15.292969 0 L 22.101562 -22.101562 L 28.890625 0 L 34.140625 0 L 43.878906 -29.519531 L 38.152344 -29.519531 L 31.96875 -9.824219 L 31.363281 -7.246094 L 31.296875 -7.246094 L 30.800781 -9.671875 L 24.941406 -29.496094 L 19.238281 -29.496094 L 13.359375 -9.628906 L 12.925781 -7.246094 L 12.839844 -7.246094 L 12.277344 -9.566406 L 6.03125 -29.519531 L 0.324219 -29.519531 L 10.0625 0 Z M 15.292969 0 "/></g></g></g><g fill="#231f20" fill-opacity="1"><g transform="translate(115.5747, 201.448041)"><g><path d="M 24.292969 -11.539062 C 24.292969 -17.675781 19.78125 -22.96875 13.058594 -22.96875 C 6.355469 -22.96875 1.496094 -17.65625 1.496094 -11.148438 C 1.496094 -4.640625 6.355469 0.671875 13.058594 0.671875 C 18.609375 0.671875 22.578125 -2.992188 23.707031 -7.003906 L 17.980469 -7.003906 C 17.222656 -5.117188 15.59375 -4.011719 12.949219 -4.011719 C 9.867188 -4.011719 7.308594 -6.117188 6.765625 -9.761719 L 24.183594 -9.761719 C 24.269531 -10.585938 24.292969 -10.976562 24.292969 -11.539062 Z M 6.984375 -13.816406 C 7.875 -16.960938 10.390625 -18.394531 13.035156 -18.394531 C 16.117188 -18.394531 18.71875 -16.3125 18.933594 -13.816406 Z M 6.984375 -13.816406 "/></g></g></g><g fill="#231f20" fill-opacity="1"><g transform="translate(141.058066, 201.448041)"><g><path d="M 15.789062 0.671875 C 22.015625 0.671875 26.589844 -4.597656 26.589844 -11.148438 C 26.589844 -17.65625 22.058594 -22.949219 15.726562 -22.949219 C 12.515625 -22.949219 9.671875 -21.234375 8.199219 -18.652344 L 8.328125 -21.582031 L 8.328125 -30.539062 L 3.078125 -30.539062 L 3.078125 0 L 8.070312 0 L 8.070312 -3.753906 C 9.585938 -1.019531 12.535156 0.671875 15.789062 0.671875 Z M 14.835938 -4.164062 C 11.277344 -4.164062 8.265625 -7.070312 8.265625 -11.148438 C 8.265625 -15.050781 11.191406 -18.109375 14.8125 -18.109375 C 18.4375 -18.109375 21.386719 -15.335938 21.386719 -11.148438 C 21.386719 -6.832031 18.371094 -4.164062 14.835938 -4.164062 Z M 14.835938 -4.164062 "/></g></g></g><g fill="#231f20" fill-opacity="1"><g transform="translate(169.729565, 201.448041)"><g><path d="M 29.867188 0 L 17.589844 -29.519531 L 12.472656 -29.519531 L 0.195312 0 L 5.898438 0 L 8.242188 -5.703125 L 21.820312 -5.703125 L 24.164062 0 Z M 14.835938 -21.839844 L 15.007812 -22.558594 L 15.074219 -22.558594 L 15.203125 -21.839844 L 19.976562 -10.214844 L 10.085938 -10.214844 Z M 14.835938 -21.839844 "/></g></g></g><g fill="#231f20" fill-opacity="1"><g transform="translate(199.810781, 201.448041)"><g><path d="M 13.015625 0.671875 C 18.738281 0.671875 22.949219 -2.992188 24.097656 -8.15625 L 18.761719 -8.15625 C 17.785156 -5.378906 15.574219 -4.1875 13.035156 -4.1875 C 9.824219 -4.1875 6.703125 -6.746094 6.703125 -11.148438 C 6.703125 -15.53125 9.804688 -18.089844 13.035156 -18.089844 C 15.574219 -18.089844 17.765625 -16.894531 18.761719 -14.421875 L 24.117188 -14.421875 C 22.859375 -19.324219 18.761719 -22.96875 13.015625 -22.96875 C 6.355469 -22.96875 1.496094 -17.632812 1.496094 -11.148438 C 1.496094 -4.640625 6.355469 0.671875 13.015625 0.671875 Z M 13.015625 0.671875 "/></g></g></g><g fill="#231f20" fill-opacity="1"><g transform="translate(225.077268, 201.448041)"><g><path d="M 11.996094 0.671875 C 15.617188 0.671875 18.566406 -0.976562 20.019531 -3.753906 L 20.019531 0 L 25.007812 0 L 25.007812 -22.296875 L 20.019531 -22.296875 L 20.019531 -18.523438 C 18.589844 -21.300781 15.617188 -22.96875 11.972656 -22.96875 C 6.007812 -22.96875 1.496094 -17.65625 1.496094 -11.148438 C 1.496094 -4.597656 5.964844 0.671875 11.996094 0.671875 Z M 13.253906 -4.1875 C 9.71875 -4.1875 6.703125 -6.8125 6.703125 -11.148438 C 6.703125 -15.335938 9.652344 -18.109375 13.253906 -18.109375 C 16.894531 -18.109375 19.800781 -15.03125 19.800781 -11.148438 C 19.800781 -7.199219 16.917969 -4.1875 13.253906 -4.1875 Z M 13.253906 -4.1875 "/></g></g></g><g fill="#231f20" fill-opacity="1"><g transform="translate(253.163191, 201.448041)"><g><path d="M 12.277344 0.671875 C 16.007812 0.671875 18.675781 -1.410156 19.996094 -3.753906 L 19.996094 0 L 24.988281 0 L 24.988281 -30.539062 L 19.757812 -30.539062 L 19.757812 -20.972656 L 19.867188 -18.652344 C 18.695312 -20.757812 15.984375 -22.96875 12.339844 -22.96875 C 5.835938 -22.96875 1.496094 -17.65625 1.496094 -11.148438 C 1.496094 -4.597656 5.941406 0.671875 12.277344 0.671875 Z M 13.230469 -4.164062 C 9.390625 -4.164062 6.660156 -7.199219 6.660156 -11.148438 C 6.660156 -15.203125 9.523438 -18.109375 13.230469 -18.109375 C 16.917969 -18.109375 19.800781 -15.050781 19.800781 -11.148438 C 19.800781 -7.199219 16.894531 -4.164062 13.230469 -4.164062 Z M 13.230469 -4.164062 "/></g></g></g><g fill="#231f20" fill-opacity="1"><g transform="translate(281.205738, 201.448041)"><g><path d="M 24.292969 -11.539062 C 24.292969 -17.675781 19.78125 -22.96875 13.058594 -22.96875 C 6.355469 -22.96875 1.496094 -17.65625 1.496094 -11.148438 C 1.496094 -4.640625 6.355469 0.671875 13.058594 0.671875 C 18.609375 0.671875 22.578125 -2.992188 23.707031 -7.003906 L 17.980469 -7.003906 C 17.222656 -5.117188 15.59375 -4.011719 12.949219 -4.011719 C 9.867188 -4.011719 7.308594 -6.117188 6.765625 -9.761719 L 24.183594 -9.761719 C 24.269531 -10.585938 24.292969 -10.976562 24.292969 -11.539062 Z M 6.984375 -13.816406 C 7.875 -16.960938 10.390625 -18.394531 13.035156 -18.394531 C 16.117188 -18.394531 18.71875 -16.3125 18.933594 -13.816406 Z M 6.984375 -13.816406 "/></g></g></g><g fill="#231f20" fill-opacity="1"><g transform="translate(306.689105, 201.448041)"><g><path d="M 30.410156 -22.96875 C 27.21875 -22.96875 24.507812 -21.363281 22.601562 -17.9375 C 21.363281 -21.210938 18.890625 -22.96875 15.160156 -22.96875 C 11.863281 -22.96875 9.195312 -21.191406 8.046875 -18.828125 L 7.980469 -22.296875 L 3.078125 -22.296875 L 3.078125 0 L 8.265625 0 L 8.265625 -11.386719 C 8.265625 -15.398438 10.824219 -18.132812 13.644531 -18.132812 C 16.507812 -18.132812 18.328125 -16.3125 18.328125 -11.90625 L 18.328125 0 L 23.511719 0 L 23.511719 -11.386719 C 23.511719 -15.398438 26.09375 -18.132812 28.890625 -18.132812 C 31.777344 -18.132812 33.597656 -16.3125 33.597656 -11.90625 L 33.597656 0 L 38.78125 0 L 38.78125 -12.015625 C 38.78125 -19.023438 36.003906 -22.96875 30.410156 -22.96875 Z M 30.410156 -22.96875 "/></g></g></g><g fill="#231f20" fill-opacity="1"><g transform="translate(348.3734, 201.448041)"><g><path d="M 4.816406 7.613281 C 9.761719 7.613281 12.015625 6.160156 14.640625 -0.5 L 23.339844 -22.296875 L 17.742188 -22.273438 L 12.578125 -8.785156 L 11.996094 -6.507812 L 11.429688 -8.804688 L 6.179688 -22.296875 L 0.652344 -22.296875 L 9.195312 -1.042969 L 8.9375 -0.28125 C 8.003906 2.167969 7.113281 3.273438 4.773438 3.273438 L 1.0625 3.273438 L 1.0625 7.613281 Z M 4.816406 7.613281 "/></g></g></g></svg>